<?xml version="1.0" encoding="UTF-8"?>
<svg width="19px" height="13px" viewBox="0 0 19 13" version="1.1" xmlns="http://www.w3.org/2000/svg" xmlns:xlink="http://www.w3.org/1999/xlink">
    <!-- Generator: Sketch 42 (36781) - http://www.bohemiancoding.com/sketch -->
    <title>Behance-black</title>
    <desc>Created with Sketch.</desc>
    <defs></defs>
    <g id="Page-1" stroke="none" stroke-width="1" fill="none" fill-rule="evenodd">
        <g id="Desktop-HD" transform="translate(-1326.000000, -947.000000)" fill="#3B3B3B">
            <g id="Social-Icons" transform="translate(1173.000000, 944.000000)">
                <path d="M165.492454,5.70229234 L170.266104,5.70229234 L170.266104,4.31842227 L165.492454,4.31842227 L165.492454,5.70229234 L165.492454,5.70229234 Z M166.623334,8.72183759 C166.319152,9.03500696 166.127316,9.45926682 166.048885,9.99461717 L169.761606,9.99461717 C169.722391,9.42329466 169.529495,8.99162877 169.188217,8.69432947 C168.8427,8.39914617 168.417692,8.25208353 167.908955,8.25208353 C167.357823,8.25208353 166.927517,8.40866821 166.623334,8.72183759 L166.623334,8.72183759 L166.623334,8.72183759 Z M169.845336,6.86398144 C170.420845,7.12001856 170.894606,7.52629234 171.26768,8.08068677 C171.607898,8.56948492 171.826231,9.13657541 171.925858,9.78090023 C171.984151,10.1575499 172.007468,10.7034803 171.997929,11.4134014 L165.995892,11.4134014 C166.031927,12.237587 166.315972,12.8163155 166.858625,13.147471 C167.187185,13.3537819 167.582516,13.4574664 168.046738,13.4574664 C168.535338,13.4574664 168.934908,13.3315638 169.24121,13.0808167 C169.40973,12.9443341 169.558111,12.7560093 169.685296,12.5147842 L171.884523,12.5147842 C171.826231,13.0014664 171.559144,13.4976705 171.086442,14.0012807 C170.348773,14.8000742 169.315401,15.2 167.987386,15.2 C166.890421,15.2 165.922761,14.8635545 165.086524,14.1885476 C164.246048,13.5145986 163.82846,12.4163898 163.82846,10.8970951 C163.82846,9.47196288 164.206833,8.37904408 164.96252,7.61833875 C165.720326,6.85974942 166.700705,6.47780974 167.907895,6.47780974 C168.625427,6.47780974 169.270887,6.60688631 169.845336,6.86398144 L169.845336,6.86398144 L169.845336,6.86398144 Z M156.194224,10.0242413 L156.194224,12.9898283 L158.89901,12.9898283 C159.38231,12.9898283 159.759623,12.924232 160.02777,12.7940974 C160.51637,12.5507564 160.76014,12.0894664 160.76014,11.4059954 C160.76014,10.8262088 160.524849,10.4294571 160.051087,10.2125661 C159.78612,10.0919536 159.414106,10.0284733 158.937165,10.0242413 L156.194224,10.0242413 L156.194224,10.0242413 Z M156.194224,5.73085847 L156.194224,8.18437123 L158.903249,8.18437123 C159.38549,8.18437123 159.778701,8.09232483 160.081824,7.90823202 C160.382826,7.72413921 160.534388,7.39827378 160.534388,6.93275174 C160.534388,6.41327146 160.335132,6.07153596 159.936621,5.90437123 C159.591104,5.78904872 159.152319,5.73085847 158.619204,5.73085847 L156.194224,5.73085847 L156.194224,5.73085847 Z M162.243956,4.9849652 C162.584174,5.45789327 162.754813,6.02286775 162.754813,6.68200464 C162.754813,7.36018561 162.584174,7.90717401 162.239717,8.31979582 C162.04682,8.55044084 161.763835,8.76204176 161.389702,8.9524826 C161.957791,9.15985151 162.385978,9.48677494 162.677442,9.9343109 C162.965727,10.3807889 163.110929,10.9246032 163.110929,11.5636381 C163.110929,12.2227749 162.945589,12.8141995 162.61385,13.3368538 C162.403996,13.6828213 162.141149,13.9748306 161.825308,14.2118237 C161.470252,14.4837309 161.051604,14.6688817 160.567243,14.7704501 C160.082883,14.8709606 159.559308,14.9196288 158.993338,14.9196288 L153.973799,14.9196288 L153.973799,3.8 L159.356873,3.8 C160.715625,3.82010209 161.676926,4.21473782 162.243956,4.9849652 L162.243956,4.9849652 L162.243956,4.9849652 Z" id="Behance"></path>
            </g>
        </g>
    </g>
</svg>