<?xml version="1.0" encoding="UTF-8"?>
<svg width="18px" height="19px" viewBox="0 0 18 19" version="1.1" xmlns="http://www.w3.org/2000/svg" xmlns:xlink="http://www.w3.org/1999/xlink">
    <!-- Generator: Sketch 42 (36781) - http://www.bohemiancoding.com/sketch -->
    <title>Dribbble-black</title>
    <desc>Created with Sketch.</desc>
    <defs></defs>
    <g id="Page-1" stroke="none" stroke-width="1" fill="none" fill-rule="evenodd">
        <g id="Desktop-HD" transform="translate(-1289.000000, -944.000000)" fill="#3B3B3B">
            <g id="Social-Icons" transform="translate(1173.000000, 944.000000)">
                <path d="M129.179249,15.6902981 C129.104083,15.2401693 128.710982,13.0491316 127.742958,10.3596637 C130.124926,9.9742795 132.187944,10.635085 132.340309,10.6854418 C132.012217,12.7654889 130.834946,14.55881 129.179249,15.6902981 L129.179249,15.6902981 L129.179249,15.6902981 Z M125.057276,16.9646352 C123.271562,16.9646352 121.63415,16.3223282 120.357333,15.2535293 C120.454847,15.3336892 120.522903,15.3840461 120.522903,15.3840461 C120.522903,15.3840461 121.936847,12.2639755 126.311746,10.721411 C126.327998,10.7152449 126.345266,10.7111341 126.361518,10.7059956 C127.39963,13.4345158 127.827267,15.7201011 127.936969,16.372685 C127.052238,16.7529308 126.07812,16.9646352 125.057276,16.9646352 L125.057276,16.9646352 L125.057276,16.9646352 Z M117.679778,9.49948615 C117.679778,9.42035393 117.683841,9.3422494 117.685872,9.26414486 C117.816906,9.26722794 121.46147,9.35047093 125.259414,8.20048445 C125.470693,8.61875478 125.67283,9.04524663 125.857699,9.46968311 C125.760186,9.49640308 125.663688,9.52620613 125.56719,9.55909225 C121.586409,10.8601493 119.567069,14.4837886 119.567069,14.4837886 C119.567069,14.4837886 119.570116,14.4868717 119.570116,14.4878993 C118.394876,13.1652607 117.679778,11.417158 117.679778,9.49948615 L117.679778,9.49948615 L117.679778,9.49948615 Z M121.909422,2.7506379 C122.007951,2.88321007 123.372123,4.75463578 124.648939,7.05049797 C121.106968,8.00316773 118.032248,7.96514316 117.838237,7.96206009 C118.316662,5.64975484 119.851483,3.73311071 121.909422,2.7506379 L121.909422,2.7506379 L121.909422,2.7506379 Z M123.289846,2.25323535 C123.289846,2.25426304 123.28883,2.25529073 123.28883,2.25529073 C123.28883,2.25529073 123.279688,2.25734611 123.266483,2.25940149 C123.27461,2.25734611 123.28172,2.25631842 123.289846,2.25323535 L123.289846,2.25323535 L123.289846,2.25323535 Z M129.928884,3.89959668 C129.9106,3.92734435 128.860299,5.54595802 126.075073,6.60139691 C124.814509,4.25723323 123.429006,2.39505673 123.318287,2.2470692 C123.875942,2.11038627 124.457975,2.0363925 125.057276,2.0363925 C126.924252,2.0363925 128.629721,2.74138868 129.928884,3.89959668 L129.928884,3.89959668 L129.928884,3.89959668 Z M132.431728,9.42549239 C132.325072,9.40185549 129.828323,8.85820683 127.29399,9.18090188 C127.24117,9.05346816 127.189366,8.92500676 127.134515,8.79654536 C126.981135,8.43068728 126.815565,8.06893997 126.643901,7.71335881 C129.557114,6.50993239 130.739464,4.78032806 130.753685,4.75977424 C131.787733,6.03102828 132.41446,7.65478041 132.431728,9.42549239 L132.431728,9.42549239 L132.431728,9.42549239 Z M133.519612,7.74110647 C133.405846,7.17998707 133.235198,6.6260615 133.014777,6.09782821 C132.799434,5.57987183 132.530257,5.0804139 132.218417,4.61384208 C131.91064,4.15138103 131.555123,3.71563996 131.165069,3.32100653 C130.774,2.92534541 130.344331,2.56668117 129.886222,2.25426304 C129.425064,1.93773414 128.931403,1.66745135 128.419457,1.44752543 C127.897354,1.22554412 127.350873,1.052892 126.796265,0.938818273 C126.227437,0.820633782 125.642357,0.76 125.057276,0.76 C124.47118,0.76 123.8861,0.820633782 123.317272,0.938818273 C122.762664,1.052892 122.216183,1.22554412 121.69408,1.44752543 C121.182134,1.66745135 120.688473,1.93773414 120.2263,2.25426304 C119.769206,2.56668117 119.339537,2.92534541 118.948468,3.32100653 C118.558414,3.71563996 118.203912,4.15138103 117.89512,4.61384208 C117.58328,5.0804139 117.314103,5.57987183 117.098761,6.09782821 C116.877324,6.6260615 116.707691,7.17998707 116.593925,7.74110647 C116.478128,8.31558587 116.419214,8.90753601 116.419214,9.49948615 C116.419214,10.0934917 116.478128,10.6854418 116.593925,11.2609489 C116.707691,11.8220683 116.877324,12.3749662 117.098761,12.9021718 C117.314103,13.4201282 117.58328,13.9216415 117.89512,14.3882133 C118.203912,14.8506743 118.558414,15.28436 118.948468,15.6810489 C119.339537,16.0756823 119.769206,16.4333188 120.2263,16.7467647 C120.688473,17.0622659 121.182134,17.3335763 121.69408,17.5524746 C122.216183,17.7765113 122.762664,17.947108 123.317272,18.0611817 C123.8861,18.1803939 124.47118,18.24 125.057276,18.24 C125.642357,18.24 126.227437,18.1803939 126.796265,18.0611817 C127.350873,17.947108 127.897354,17.7765113 128.419457,17.5524746 C128.931403,17.3335763 129.425064,17.0622659 129.886222,16.7467647 C130.344331,16.4333188 130.774,16.0756823 131.165069,15.6810489 C131.555123,15.28436 131.91064,14.8506743 132.218417,14.3882133 C132.530257,13.9216415 132.799434,13.4201282 133.014777,12.9021718 C133.235198,12.3749662 133.405846,11.8220683 133.519612,11.2609489 C133.635409,10.6854418 133.694323,10.0934917 133.694323,9.49948615 C133.694323,8.90753601 133.635409,8.31558587 133.519612,7.74110647 L133.519612,7.74110647 L133.519612,7.74110647 Z" id="Dribbble"></path>
            </g>
        </g>
    </g>
</svg>