<?xml version="1.0" encoding="UTF-8"?>
<svg width="19px" height="19px" viewBox="0 0 19 19" version="1.1" xmlns="http://www.w3.org/2000/svg" xmlns:xlink="http://www.w3.org/1999/xlink">
    <!-- Generator: Sketch 42 (36781) - http://www.bohemiancoding.com/sketch -->
    <title>Facebook-black</title>
    <desc>Created with Sketch.</desc>
    <defs></defs>
    <g id="Page-1" stroke="none" stroke-width="1" fill="none" fill-rule="evenodd">
        <g id="Desktop-HD" transform="translate(-1173.000000, -944.000000)" fill="#3B3B3B">
            <g id="Social-Icons" transform="translate(1173.000000, 944.000000)">
                <path d="M9.62837795,19 L0.994907908,19 C0.445274447,19 0,18.5491648 0,17.9932291 L0,1.76670017 C0,1.21062289 0.445344393,0.76 0.994907908,0.76 L17.0313629,0.76 C17.5807865,0.76 18.0262009,1.21062289 18.0262009,1.76670017 L18.0262009,17.9932291 C18.0262009,18.5492356 17.5807166,19 17.0313629,19 L12.4378177,19 L12.4378177,11.9364668 L14.7809293,11.9364668 L15.1317771,9.18368254 L12.4378177,9.18368254 L12.4378177,7.42620373 C12.4378177,6.62920918 12.656538,6.08608368 13.7860214,6.08608368 L15.2266235,6.08544671 L15.2266235,3.62333441 C14.9774768,3.58978717 14.1223205,3.5148367 13.1274125,3.5148367 C11.0503744,3.5148367 9.62837795,4.79769998 9.62837795,7.15357936 L9.62837795,9.18368254 L7.27925098,9.18368254 L7.27925098,11.9364668 L9.62837795,11.9364668 L9.62837795,19 L9.62837795,19 Z" id="Facebook"></path>
            </g>
        </g>
    </g>
</svg>