<?xml version="1.0" encoding="UTF-8"?>
<svg width="19px" height="19px" viewBox="0 0 19 19" version="1.1" xmlns="http://www.w3.org/2000/svg" xmlns:xlink="http://www.w3.org/1999/xlink">
    <!-- Generator: Sketch 42 (36781) - http://www.bohemiancoding.com/sketch -->
    <title>Instagram-black</title>
    <desc>Created with Sketch.</desc>
    <defs></defs>
    <g id="Page-1" stroke="none" stroke-width="1" fill="none" fill-rule="evenodd">
        <g id="Desktop-HD" transform="translate(-1251.000000, -944.000000)" fill="#3B3B3B">
            <g id="Social-Icons" transform="translate(1173.000000, 944.000000)">
                <path d="M87.8777471,0 C90.3255404,0 90.632476,0.0104985501 91.593819,0.0548820759 C92.5531585,0.099156996 93.2083529,0.253340875 93.7816525,0.47880629 C94.3743436,0.711837901 94.8769825,1.02368104 95.378083,1.53068861 C95.8791477,2.03773238 96.1873356,2.54633283 96.4176715,3.14605346 C96.6404583,3.72615266 96.792835,4.389118 96.8365909,5.35983566 C96.8804542,6.33258064 96.8908297,6.64315671 96.8908297,9.1200181 C96.8908297,11.5968433 96.8804542,11.9074194 96.8365909,12.8801643 C96.792835,13.850882 96.6404583,14.5138473 96.4176715,15.0939465 C96.1873356,15.6936672 95.8791477,16.2022676 95.378083,16.7093114 C94.8769825,17.216319 94.3743436,17.5281621 93.7816525,17.7612299 C93.2083529,17.9866591 92.5531585,18.140843 91.593819,18.1851179 C90.632476,18.2295014 90.3255404,18.24 87.8777471,18.24 C85.4299181,18.24 85.1229825,18.2295014 84.1616395,18.1851179 C83.2023,18.140843 82.5471056,17.9866591 81.973806,17.7612299 C81.381115,17.5281621 80.878476,17.216319 80.3773756,16.7093114 C79.8763108,16.2022676 79.568123,15.6936672 79.3378228,15.0939465 C79.1150002,14.5138473 78.9626236,13.850882 78.9188676,12.8801643 C78.8750043,11.9074194 78.8646288,11.5968433 78.8646288,9.1200181 C78.8646288,6.64315671 78.8750043,6.33258064 78.9188676,5.35983566 C78.9626236,4.389118 79.1150002,3.72615266 79.3378228,3.14605346 C79.568123,2.54633283 79.8763108,2.03773238 80.3773756,1.53068861 C80.878476,1.02368104 81.381115,0.711837901 81.973806,0.47880629 C82.5471056,0.253340875 83.2023,0.099156996 84.1616395,0.0548820759 C85.1229825,0.0104985501 85.4299181,0 87.8777471,0 Z M87.8777471,1.64324031 C85.4711339,1.64324031 85.1860583,1.6525442 84.2356632,1.69642089 C83.3568948,1.73696702 82.879658,1.8855396 82.5620606,2.01043615 C82.1413523,2.17587882 81.841107,2.37350497 81.5257278,2.6926609 C81.2103129,3.01178062 81.0150032,3.31558694 80.8514998,3.74128505 C80.7280672,4.06264929 80.5812361,4.54554639 80.5411652,5.43473739 C80.4978028,6.39640458 80.488608,6.6848613 80.488608,9.1200181 C80.488608,11.5551387 80.4978028,11.8435954 80.5411652,12.8052626 C80.5812361,13.6944536 80.7280672,14.1773507 80.8514998,14.498715 C81.0150032,14.9244131 81.2103487,15.2282194 81.5257278,15.5473391 C81.841107,15.866495 82.1413523,16.0641212 82.5620606,16.2295639 C82.879658,16.3544604 83.3568948,16.503033 84.2356632,16.5435791 C85.185951,16.5874558 85.470955,16.5967597 87.8777471,16.5967597 C90.2845035,16.5967597 90.5695433,16.5874558 91.5197953,16.5435791 C92.3985637,16.503033 92.8758005,16.3544604 93.1933979,16.2295639 C93.6141062,16.0641212 93.9143515,15.866495 94.2297307,15.5473391 C94.5451456,15.2282194 94.7404553,14.9244131 94.9039588,14.498715 C95.0273913,14.1773507 95.1742224,13.6944536 95.2142933,12.8052626 C95.2576557,11.8435954 95.2668505,11.5551387 95.2668505,9.1200181 C95.2668505,6.6848613 95.2576557,6.39640458 95.2142933,5.43473739 C95.1742224,4.54554639 95.0273913,4.06264929 94.9039588,3.74128505 C94.7404553,3.31558694 94.5451456,3.01178062 94.2297307,2.6926609 C93.9143515,2.37350497 93.6141062,2.17587882 93.1933979,2.01043615 C92.8758005,1.8855396 92.3985637,1.73696702 91.5197953,1.69642089 C90.5694002,1.6525442 90.2843246,1.64324031 87.8777471,1.64324031 Z M87.8777471,4.43675969 C90.4339106,4.43675969 92.5060752,6.53350116 92.5060752,9.1200181 C92.5060752,11.7064988 90.4339106,13.8032403 87.8777471,13.8032403 C85.3215479,13.8032403 83.2493833,11.7064988 83.2493833,9.1200181 C83.2493833,6.53350116 85.3215479,4.43675969 87.8777471,4.43675969 Z M87.8777471,12.16 C89.537003,12.16 90.8820961,10.7989535 90.8820961,9.1200181 C90.8820961,7.44104652 89.537003,6.08 87.8777471,6.08 C86.2184555,6.08 84.8733624,7.44104652 84.8733624,9.1200181 C84.8733624,10.7989535 86.2184555,12.16 87.8777471,12.16 Z M93.7705257,4.2517318 C93.7705257,4.85615867 93.2862764,5.34611514 92.6889343,5.34611514 C92.091628,5.34611514 91.6073787,4.85615867 91.6073787,4.2517318 C91.6073787,3.64730492 92.091628,3.15731225 92.6889343,3.15731225 C93.2862764,3.15731225 93.7705257,3.64730492 93.7705257,4.2517318 Z" id="Instagram"></path>
            </g>
        </g>
    </g>
</svg>