<?xml version="1.0" encoding="UTF-8"?>
<svg width="172px" height="19px" viewBox="0 0 172 19" version="1.1" xmlns="http://www.w3.org/2000/svg" xmlns:xlink="http://www.w3.org/1999/xlink">
    <!-- Generator: Sketch 42 (36781) - http://www.bohemiancoding.com/sketch -->
    <title>Social Icons</title>
    <desc>Created with Sketch.</desc>
    <defs></defs>
    <g id="Page-1" stroke="none" stroke-width="1" fill="none" fill-rule="evenodd">
        <g id="Desktop-HD" transform="translate(-1173.000000, -944.000000)" fill="#3B3B3B">
            <g id="Social-Icons" transform="translate(1173.000000, 944.000000)">
                <path d="M165.492454,5.70229234 L170.266104,5.70229234 L170.266104,4.31842227 L165.492454,4.31842227 L165.492454,5.70229234 L165.492454,5.70229234 Z M166.623334,8.72183759 C166.319152,9.03500696 166.127316,9.45926682 166.048885,9.99461717 L169.761606,9.99461717 C169.722391,9.42329466 169.529495,8.99162877 169.188217,8.69432947 C168.8427,8.39914617 168.417692,8.25208353 167.908955,8.25208353 C167.357823,8.25208353 166.927517,8.40866821 166.623334,8.72183759 L166.623334,8.72183759 L166.623334,8.72183759 Z M169.845336,6.86398144 C170.420845,7.12001856 170.894606,7.52629234 171.26768,8.08068677 C171.607898,8.56948492 171.826231,9.13657541 171.925858,9.78090023 C171.984151,10.1575499 172.007468,10.7034803 171.997929,11.4134014 L165.995892,11.4134014 C166.031927,12.237587 166.315972,12.8163155 166.858625,13.147471 C167.187185,13.3537819 167.582516,13.4574664 168.046738,13.4574664 C168.535338,13.4574664 168.934908,13.3315638 169.24121,13.0808167 C169.40973,12.9443341 169.558111,12.7560093 169.685296,12.5147842 L171.884523,12.5147842 C171.826231,13.0014664 171.559144,13.4976705 171.086442,14.0012807 C170.348773,14.8000742 169.315401,15.2 167.987386,15.2 C166.890421,15.2 165.922761,14.8635545 165.086524,14.1885476 C164.246048,13.5145986 163.82846,12.4163898 163.82846,10.8970951 C163.82846,9.47196288 164.206833,8.37904408 164.96252,7.61833875 C165.720326,6.85974942 166.700705,6.47780974 167.907895,6.47780974 C168.625427,6.47780974 169.270887,6.60688631 169.845336,6.86398144 L169.845336,6.86398144 L169.845336,6.86398144 Z M156.194224,10.0242413 L156.194224,12.9898283 L158.89901,12.9898283 C159.38231,12.9898283 159.759623,12.924232 160.02777,12.7940974 C160.51637,12.5507564 160.76014,12.0894664 160.76014,11.4059954 C160.76014,10.8262088 160.524849,10.4294571 160.051087,10.2125661 C159.78612,10.0919536 159.414106,10.0284733 158.937165,10.0242413 L156.194224,10.0242413 L156.194224,10.0242413 Z M156.194224,5.73085847 L156.194224,8.18437123 L158.903249,8.18437123 C159.38549,8.18437123 159.778701,8.09232483 160.081824,7.90823202 C160.382826,7.72413921 160.534388,7.39827378 160.534388,6.93275174 C160.534388,6.41327146 160.335132,6.07153596 159.936621,5.90437123 C159.591104,5.78904872 159.152319,5.73085847 158.619204,5.73085847 L156.194224,5.73085847 L156.194224,5.73085847 Z M162.243956,4.9849652 C162.584174,5.45789327 162.754813,6.02286775 162.754813,6.68200464 C162.754813,7.36018561 162.584174,7.90717401 162.239717,8.31979582 C162.04682,8.55044084 161.763835,8.76204176 161.389702,8.9524826 C161.957791,9.15985151 162.385978,9.48677494 162.677442,9.9343109 C162.965727,10.3807889 163.110929,10.9246032 163.110929,11.5636381 C163.110929,12.2227749 162.945589,12.8141995 162.61385,13.3368538 C162.403996,13.6828213 162.141149,13.9748306 161.825308,14.2118237 C161.470252,14.4837309 161.051604,14.6688817 160.567243,14.7704501 C160.082883,14.8709606 159.559308,14.9196288 158.993338,14.9196288 L153.973799,14.9196288 L153.973799,3.8 L159.356873,3.8 C160.715625,3.82010209 161.676926,4.21473782 162.243956,4.9849652 L162.243956,4.9849652 L162.243956,4.9849652 Z" id="Behance"></path>
                <path d="M129.179249,15.6902981 C129.104083,15.2401693 128.710982,13.0491316 127.742958,10.3596637 C130.124926,9.9742795 132.187944,10.635085 132.340309,10.6854418 C132.012217,12.7654889 130.834946,14.55881 129.179249,15.6902981 L129.179249,15.6902981 L129.179249,15.6902981 Z M125.057276,16.9646352 C123.271562,16.9646352 121.63415,16.3223282 120.357333,15.2535293 C120.454847,15.3336892 120.522903,15.3840461 120.522903,15.3840461 C120.522903,15.3840461 121.936847,12.2639755 126.311746,10.721411 C126.327998,10.7152449 126.345266,10.7111341 126.361518,10.7059956 C127.39963,13.4345158 127.827267,15.7201011 127.936969,16.372685 C127.052238,16.7529308 126.07812,16.9646352 125.057276,16.9646352 L125.057276,16.9646352 L125.057276,16.9646352 Z M117.679778,9.49948615 C117.679778,9.42035393 117.683841,9.3422494 117.685872,9.26414486 C117.816906,9.26722794 121.46147,9.35047093 125.259414,8.20048445 C125.470693,8.61875478 125.67283,9.04524663 125.857699,9.46968311 C125.760186,9.49640308 125.663688,9.52620613 125.56719,9.55909225 C121.586409,10.8601493 119.567069,14.4837886 119.567069,14.4837886 C119.567069,14.4837886 119.570116,14.4868717 119.570116,14.4878993 C118.394876,13.1652607 117.679778,11.417158 117.679778,9.49948615 L117.679778,9.49948615 L117.679778,9.49948615 Z M121.909422,2.7506379 C122.007951,2.88321007 123.372123,4.75463578 124.648939,7.05049797 C121.106968,8.00316773 118.032248,7.96514316 117.838237,7.96206009 C118.316662,5.64975484 119.851483,3.73311071 121.909422,2.7506379 L121.909422,2.7506379 L121.909422,2.7506379 Z M123.289846,2.25323535 C123.289846,2.25426304 123.28883,2.25529073 123.28883,2.25529073 C123.28883,2.25529073 123.279688,2.25734611 123.266483,2.25940149 C123.27461,2.25734611 123.28172,2.25631842 123.289846,2.25323535 L123.289846,2.25323535 L123.289846,2.25323535 Z M129.928884,3.89959668 C129.9106,3.92734435 128.860299,5.54595802 126.075073,6.60139691 C124.814509,4.25723323 123.429006,2.39505673 123.318287,2.2470692 C123.875942,2.11038627 124.457975,2.0363925 125.057276,2.0363925 C126.924252,2.0363925 128.629721,2.74138868 129.928884,3.89959668 L129.928884,3.89959668 L129.928884,3.89959668 Z M132.431728,9.42549239 C132.325072,9.40185549 129.828323,8.85820683 127.29399,9.18090188 C127.24117,9.05346816 127.189366,8.92500676 127.134515,8.79654536 C126.981135,8.43068728 126.815565,8.06893997 126.643901,7.71335881 C129.557114,6.50993239 130.739464,4.78032806 130.753685,4.75977424 C131.787733,6.03102828 132.41446,7.65478041 132.431728,9.42549239 L132.431728,9.42549239 L132.431728,9.42549239 Z M133.519612,7.74110647 C133.405846,7.17998707 133.235198,6.6260615 133.014777,6.09782821 C132.799434,5.57987183 132.530257,5.0804139 132.218417,4.61384208 C131.91064,4.15138103 131.555123,3.71563996 131.165069,3.32100653 C130.774,2.92534541 130.344331,2.56668117 129.886222,2.25426304 C129.425064,1.93773414 128.931403,1.66745135 128.419457,1.44752543 C127.897354,1.22554412 127.350873,1.052892 126.796265,0.938818273 C126.227437,0.820633782 125.642357,0.76 125.057276,0.76 C124.47118,0.76 123.8861,0.820633782 123.317272,0.938818273 C122.762664,1.052892 122.216183,1.22554412 121.69408,1.44752543 C121.182134,1.66745135 120.688473,1.93773414 120.2263,2.25426304 C119.769206,2.56668117 119.339537,2.92534541 118.948468,3.32100653 C118.558414,3.71563996 118.203912,4.15138103 117.89512,4.61384208 C117.58328,5.0804139 117.314103,5.57987183 117.098761,6.09782821 C116.877324,6.6260615 116.707691,7.17998707 116.593925,7.74110647 C116.478128,8.31558587 116.419214,8.90753601 116.419214,9.49948615 C116.419214,10.0934917 116.478128,10.6854418 116.593925,11.2609489 C116.707691,11.8220683 116.877324,12.3749662 117.098761,12.9021718 C117.314103,13.4201282 117.58328,13.9216415 117.89512,14.3882133 C118.203912,14.8506743 118.558414,15.28436 118.948468,15.6810489 C119.339537,16.0756823 119.769206,16.4333188 120.2263,16.7467647 C120.688473,17.0622659 121.182134,17.3335763 121.69408,17.5524746 C122.216183,17.7765113 122.762664,17.947108 123.317272,18.0611817 C123.8861,18.1803939 124.47118,18.24 125.057276,18.24 C125.642357,18.24 126.227437,18.1803939 126.796265,18.0611817 C127.350873,17.947108 127.897354,17.7765113 128.419457,17.5524746 C128.931403,17.3335763 129.425064,17.0622659 129.886222,16.7467647 C130.344331,16.4333188 130.774,16.0756823 131.165069,15.6810489 C131.555123,15.28436 131.91064,14.8506743 132.218417,14.3882133 C132.530257,13.9216415 132.799434,13.4201282 133.014777,12.9021718 C133.235198,12.3749662 133.405846,11.8220683 133.519612,11.2609489 C133.635409,10.6854418 133.694323,10.0934917 133.694323,9.49948615 C133.694323,8.90753601 133.635409,8.31558587 133.519612,7.74110647 L133.519612,7.74110647 L133.519612,7.74110647 Z" id="Dribbble"></path>
                <path d="M87.8777471,0 C90.3255404,0 90.632476,0.0104985501 91.593819,0.0548820759 C92.5531585,0.099156996 93.2083529,0.253340875 93.7816525,0.47880629 C94.3743436,0.711837901 94.8769825,1.02368104 95.378083,1.53068861 C95.8791477,2.03773238 96.1873356,2.54633283 96.4176715,3.14605346 C96.6404583,3.72615266 96.792835,4.389118 96.8365909,5.35983566 C96.8804542,6.33258064 96.8908297,6.64315671 96.8908297,9.1200181 C96.8908297,11.5968433 96.8804542,11.9074194 96.8365909,12.8801643 C96.792835,13.850882 96.6404583,14.5138473 96.4176715,15.0939465 C96.1873356,15.6936672 95.8791477,16.2022676 95.378083,16.7093114 C94.8769825,17.216319 94.3743436,17.5281621 93.7816525,17.7612299 C93.2083529,17.9866591 92.5531585,18.140843 91.593819,18.1851179 C90.632476,18.2295014 90.3255404,18.24 87.8777471,18.24 C85.4299181,18.24 85.1229825,18.2295014 84.1616395,18.1851179 C83.2023,18.140843 82.5471056,17.9866591 81.973806,17.7612299 C81.381115,17.5281621 80.878476,17.216319 80.3773756,16.7093114 C79.8763108,16.2022676 79.568123,15.6936672 79.3378228,15.0939465 C79.1150002,14.5138473 78.9626236,13.850882 78.9188676,12.8801643 C78.8750043,11.9074194 78.8646288,11.5968433 78.8646288,9.1200181 C78.8646288,6.64315671 78.8750043,6.33258064 78.9188676,5.35983566 C78.9626236,4.389118 79.1150002,3.72615266 79.3378228,3.14605346 C79.568123,2.54633283 79.8763108,2.03773238 80.3773756,1.53068861 C80.878476,1.02368104 81.381115,0.711837901 81.973806,0.47880629 C82.5471056,0.253340875 83.2023,0.099156996 84.1616395,0.0548820759 C85.1229825,0.0104985501 85.4299181,0 87.8777471,0 Z M87.8777471,1.64324031 C85.4711339,1.64324031 85.1860583,1.6525442 84.2356632,1.69642089 C83.3568948,1.73696702 82.879658,1.8855396 82.5620606,2.01043615 C82.1413523,2.17587882 81.841107,2.37350497 81.5257278,2.6926609 C81.2103129,3.01178062 81.0150032,3.31558694 80.8514998,3.74128505 C80.7280672,4.06264929 80.5812361,4.54554639 80.5411652,5.43473739 C80.4978028,6.39640458 80.488608,6.6848613 80.488608,9.1200181 C80.488608,11.5551387 80.4978028,11.8435954 80.5411652,12.8052626 C80.5812361,13.6944536 80.7280672,14.1773507 80.8514998,14.498715 C81.0150032,14.9244131 81.2103487,15.2282194 81.5257278,15.5473391 C81.841107,15.866495 82.1413523,16.0641212 82.5620606,16.2295639 C82.879658,16.3544604 83.3568948,16.503033 84.2356632,16.5435791 C85.185951,16.5874558 85.470955,16.5967597 87.8777471,16.5967597 C90.2845035,16.5967597 90.5695433,16.5874558 91.5197953,16.5435791 C92.3985637,16.503033 92.8758005,16.3544604 93.1933979,16.2295639 C93.6141062,16.0641212 93.9143515,15.866495 94.2297307,15.5473391 C94.5451456,15.2282194 94.7404553,14.9244131 94.9039588,14.498715 C95.0273913,14.1773507 95.1742224,13.6944536 95.2142933,12.8052626 C95.2576557,11.8435954 95.2668505,11.5551387 95.2668505,9.1200181 C95.2668505,6.6848613 95.2576557,6.39640458 95.2142933,5.43473739 C95.1742224,4.54554639 95.0273913,4.06264929 94.9039588,3.74128505 C94.7404553,3.31558694 94.5451456,3.01178062 94.2297307,2.6926609 C93.9143515,2.37350497 93.6141062,2.17587882 93.1933979,2.01043615 C92.8758005,1.8855396 92.3985637,1.73696702 91.5197953,1.69642089 C90.5694002,1.6525442 90.2843246,1.64324031 87.8777471,1.64324031 Z M87.8777471,4.43675969 C90.4339106,4.43675969 92.5060752,6.53350116 92.5060752,9.1200181 C92.5060752,11.7064988 90.4339106,13.8032403 87.8777471,13.8032403 C85.3215479,13.8032403 83.2493833,11.7064988 83.2493833,9.1200181 C83.2493833,6.53350116 85.3215479,4.43675969 87.8777471,4.43675969 Z M87.8777471,12.16 C89.537003,12.16 90.8820961,10.7989535 90.8820961,9.1200181 C90.8820961,7.44104652 89.537003,6.08 87.8777471,6.08 C86.2184555,6.08 84.8733624,7.44104652 84.8733624,9.1200181 C84.8733624,10.7989535 86.2184555,12.16 87.8777471,12.16 Z M93.7705257,4.2517318 C93.7705257,4.85615867 93.2862764,5.34611514 92.6889343,5.34611514 C92.091628,5.34611514 91.6073787,4.85615867 91.6073787,4.2517318 C91.6073787,3.64730492 92.091628,3.15731225 92.6889343,3.15731225 C93.2862764,3.15731225 93.7705257,3.64730492 93.7705257,4.2517318 Z" id="Instagram"></path>
                <path d="M55.580786,4.07940773 C54.9184393,4.38461538 54.2053055,4.59101481 53.4572558,4.68323583 C54.2211765,4.2089563 54.8073428,3.45691585 55.0834969,2.56105453 C54.3682471,3.00020224 53.5778748,3.3196822 52.7335414,3.4909498 C52.060614,2.74549657 51.0988357,2.28 50.0344255,2.28 C47.993424,2.28 46.3375571,3.9981654 46.3375571,6.11705309 C46.3375571,6.41786927 46.369299,6.70990249 46.4327827,6.99095702 C43.3591128,6.83066811 40.6346034,5.30462983 38.8094466,2.98044059 C38.4909699,3.54913687 38.3089833,4.2089563 38.3089833,4.91159263 C38.3089833,6.24221018 38.9618075,7.4169303 39.9542696,8.10529433 C39.3490582,8.08663055 38.7777047,7.91206934 38.2782995,7.62662333 L38.2782995,7.67383171 C38.2782995,9.53362225 39.5532641,11.0849115 41.2461632,11.4362297 C40.936151,11.526255 40.6092099,11.5712676 40.2716882,11.5712676 C40.0336242,11.5712676 39.8008506,11.5482124 39.5754834,11.5031997 C40.046321,13.0270423 41.4112208,14.1369881 43.0300556,14.1666306 C41.7646135,15.1964319 40.1690561,15.8101408 38.4370088,15.8101408 C38.1386353,15.8101408 37.8434361,15.7925749 37.5545852,15.7574431 C39.1914069,16.8443337 41.1361247,17.48 43.2236809,17.48 C50.027019,17.48 53.7461067,11.6338462 53.7461067,6.56278801 C53.7461067,6.39591188 53.7429325,6.22903575 53.7365841,6.06545323 C54.4592404,5.52420368 55.0866711,4.84901408 55.580786,4.07940773" id="Twitter"></path>
                <path d="M9.62837795,19 L0.994907908,19 C0.445274447,19 0,18.5491648 0,17.9932291 L0,1.76670017 C0,1.21062289 0.445344393,0.76 0.994907908,0.76 L17.0313629,0.76 C17.5807865,0.76 18.0262009,1.21062289 18.0262009,1.76670017 L18.0262009,17.9932291 C18.0262009,18.5492356 17.5807166,19 17.0313629,19 L12.4378177,19 L12.4378177,11.9364668 L14.7809293,11.9364668 L15.1317771,9.18368254 L12.4378177,9.18368254 L12.4378177,7.42620373 C12.4378177,6.62920918 12.656538,6.08608368 13.7860214,6.08608368 L15.2266235,6.08544671 L15.2266235,3.62333441 C14.9774768,3.58978717 14.1223205,3.5148367 13.1274125,3.5148367 C11.0503744,3.5148367 9.62837795,4.79769998 9.62837795,7.15357936 L9.62837795,9.18368254 L7.27925098,9.18368254 L7.27925098,11.9364668 L9.62837795,11.9364668 L9.62837795,19 L9.62837795,19 Z" id="Facebook"></path>
            </g>
        </g>
    </g>
</svg>