<?xml version="1.0" encoding="UTF-8"?>
<svg width="19px" height="16px" viewBox="0 0 19 16" version="1.1" xmlns="http://www.w3.org/2000/svg" xmlns:xlink="http://www.w3.org/1999/xlink">
    <!-- Generator: Sketch 42 (36781) - http://www.bohemiancoding.com/sketch -->
    <title>Twitter-black</title>
    <desc>Created with Sketch.</desc>
    <defs></defs>
    <g id="Page-1" stroke="none" stroke-width="1" fill="none" fill-rule="evenodd">
        <g id="Desktop-HD" transform="translate(-1210.000000, -946.000000)" fill="#3B3B3B">
            <g id="Social-Icons" transform="translate(1173.000000, 944.000000)">
                <path d="M55.580786,4.07940773 C54.9184393,4.38461538 54.2053055,4.59101481 53.4572558,4.68323583 C54.2211765,4.2089563 54.8073428,3.45691585 55.0834969,2.56105453 C54.3682471,3.00020224 53.5778748,3.3196822 52.7335414,3.4909498 C52.060614,2.74549657 51.0988357,2.28 50.0344255,2.28 C47.993424,2.28 46.3375571,3.9981654 46.3375571,6.11705309 C46.3375571,6.41786927 46.369299,6.70990249 46.4327827,6.99095702 C43.3591128,6.83066811 40.6346034,5.30462983 38.8094466,2.98044059 C38.4909699,3.54913687 38.3089833,4.2089563 38.3089833,4.91159263 C38.3089833,6.24221018 38.9618075,7.4169303 39.9542696,8.10529433 C39.3490582,8.08663055 38.7777047,7.91206934 38.2782995,7.62662333 L38.2782995,7.67383171 C38.2782995,9.53362225 39.5532641,11.0849115 41.2461632,11.4362297 C40.936151,11.526255 40.6092099,11.5712676 40.2716882,11.5712676 C40.0336242,11.5712676 39.8008506,11.5482124 39.5754834,11.5031997 C40.046321,13.0270423 41.4112208,14.1369881 43.0300556,14.1666306 C41.7646135,15.1964319 40.1690561,15.8101408 38.4370088,15.8101408 C38.1386353,15.8101408 37.8434361,15.7925749 37.5545852,15.7574431 C39.1914069,16.8443337 41.1361247,17.48 43.2236809,17.48 C50.027019,17.48 53.7461067,11.6338462 53.7461067,6.56278801 C53.7461067,6.39591188 53.7429325,6.22903575 53.7365841,6.06545323 C54.4592404,5.52420368 55.0866711,4.84901408 55.580786,4.07940773" id="Twitter"></path>
            </g>
        </g>
    </g>
</svg>